# xmcd
#
# Track frame offsets:
#	150
#	17495
#	39917
#	50625
#	67142
#	91245
#	103785
#	126077
#	134445
#	155582
#	177675
#	195755
#	237150
#	255722
#	271425
#	304402
#
# Disc length: 4771 seconds
# Revision: 25
# Processed by: cddbd v1.5.2PL0 Copyright (c) Steve Scherf et al.
# Submitted via: dBpowerAMP V12.0
#
DISCID=e212a110
DTITLE=Stevie Ray Vaughan and Double Trouble - The Essential Stevie Ray Vaughan and Double Trouble, Disc 1
DYEAR=2002
DGENRE=Blues
TTITLE0=Shake For Me (Live)
TTITLE1=Rude Mood/Hide Away (Live)
TTITLE2=Love Struck Baby
TTITLE3=Pride and Joy
TTITLE4=Texas Flood
TTITLE5=Mary Had a Little Lamb
TTITLE6=Lenny
TTITLE7=Scuttle Buttin'
TTITLE8=Couldn't Stand the Weather
TTITLE9=The Things (That) I Used to Do
TTITLE10=Cold Shot
TTITLE11=Tin Pan Alley [aka Roughest Place in Town]
TTITLE12=Give Me Back My Wig
TTITLE13=Empty Arms
TTITLE14=The Sky Is Crying (Live)
TTITLE15=Voodoo Child (Slight Return) (Live)
EXTD=
EXTT0=
EXTT1=
EXTT2=
EXTT3=
EXTT4=
EXTT5=
EXTT6=
EXTT7=
EXTT8=
EXTT9=
EXTT10=
EXTT11=
EXTT12=
EXTT13=
EXTT14=
EXTT15=
PLAYORDER=
